<svg id="Image" xmlns="http://www.w3.org/2000/svg" width="339.375" height="216.023" viewBox="0 0 339.375 216.023">
  <g id="Background" transform="translate(-492.025 -317.244)">
    <path id="Background_base" data-name="Background base" d="M574.887,397.848c55.388-42.834-55.388-40.971-55.388-52.239,0-28.366,76.817-28.366,76.817-28.366S794.052,322.269,760.725,381s69.8,13.5,51.026,58.752S519.5,440.682,574.887,397.848Z" fill="#ffe4e5"/>
    <path id="Background_base-2" data-name="Background base" d="M831.348,515.172c1.371-2.576-24.443-4.539-24.443-5.9,0-6.18,13.847-5.459,13.847-11.468s-81.816-6.009-81.816-6.009H546.97c-40.849,0-54.593.351-54.943,3.156s68.483,6.833,68.483,12.318-17.769-1.473-17.769,13.284S817.346,541.484,831.348,515.172Z" fill="#e3edfa"/>
    <path id="Background_base-3" data-name="Background base" d="M797.338,403.085c-17.893,0-32.4,2.055-32.4-8.609s14.5-19.309,32.4-19.309,32.4,8.645,32.4,19.309S815.23,403.085,797.338,403.085Z" fill="#ffe4e5"/>
    <path id="Background_base-4" data-name="Background base" d="M508.292,361.748c0-10.664,31.058-6.351,56.259,4.854s.358,25.177-11.6,27.1S508.292,372.412,508.292,361.748Z" fill="#ffe4e5"/>
    <path id="Leaves" d="M804.523,492.349H720.1s8.537-5.525,8.537-9.306,9.161-2.1,12.148-2.636.578-6.226,6.225-6.826,5.989,2.722,9.2,2.2-1.048-9.9,10.207-9.9,4.333,6.112,9.361,6.207,3.084-2.9,8.748-1.928,1.17,12.885,6.988,10.815S804.523,492.349,804.523,492.349Z" fill="#c9daf2"/>
  </g>
  <g id="Leaves-2" data-name="Leaves" transform="translate(-492.025 -317.244)">
    <path id="Leaves_base" data-name="Leaves base" d="M604.16,484.083a.259.259,0,1,1-.4.325q-10.394-12.891-19.252-15.554c-9.675-2.915-18.565-11.194-18.812-18.392a.259.259,0,1,1,.518-.018c.237,6.935,8.958,15.056,18.444,17.914Q593.683,471.078,604.16,484.083Z" fill="#ff8d88"/>
    <path id="Leaves_base-2" data-name="Leaves base" d="M570.712,459.678a.259.259,0,1,1-.517.03c-.209-3.579.241-6.109,1.371-7.594a.259.259,0,0,1,.412.314C570.939,453.793,570.51,456.211,570.712,459.678Z" fill="#ff8d88"/>
    <path id="Leaves_base-3" data-name="Leaves base" d="M570.4,457.445v0l-.092-.5a16.263,16.263,0,0,1-.328-4.174,4.345,4.345,0,0,1,.886-2.542,2.691,2.691,0,0,1,2.129-.862c.078,0,.158,0,.239.006a1.893,1.893,0,0,1,1.575.674,1.752,1.752,0,0,1,.019,1.6c-.46,1.258-1.794,3.035-4.076,5.432l-.349.367Zm2.609-7.559a2.23,2.23,0,0,0-1.748.7,3.693,3.693,0,0,0-.766,2.14,14.424,14.424,0,0,0,.232,3.619,17.682,17.682,0,0,0,3.612-4.88,1.273,1.273,0,0,0,.033-1.136c-.175-.264-.557-.408-1.167-.439C573.137,449.888,573.071,449.886,573.007,449.886Z" fill="#ff8d88"/>
    <path id="Leaves_base-4" data-name="Leaves base" d="M566.979,455.227h0l-.351-.346a16.52,16.52,0,0,1-2.691-3.263,4.093,4.093,0,0,1-.7-2.553,2.616,2.616,0,0,1,1.508-1.914,2.568,2.568,0,0,1,1.2-.364l.079,0a1.226,1.226,0,0,1,.833.374,2.255,2.255,0,0,1,.521,1.013c.337,1.269.237,3.417-.307,6.565l-.084.485Zm-1.054-7.927a2.04,2.04,0,0,0-.937.3,2.136,2.136,0,0,0-1.226,1.547,3.455,3.455,0,0,0,.578,2.15,14.86,14.86,0,0,0,2.295,2.857,16.169,16.169,0,0,0,.234-5.85c-.176-.664-.46-.984-.893-1.006Z" fill="#ff8d88"/>
    <path id="Leaves_base-5" data-name="Leaves base" d="M571.019,459.972a.259.259,0,0,1-.294.427,29.424,29.424,0,0,0-6.385-3.7.259.259,0,0,1,.147-.5C565.732,456.571,567.9,457.825,571.019,459.972Z" fill="#ff8d88"/>
    <path id="Leaves_base-6" data-name="Leaves base" d="M563.2,458.313c-.06,0-.12,0-.181,0a4.727,4.727,0,0,1-3.093-1.488,2.575,2.575,0,0,1-.756-1.885,2.664,2.664,0,0,1,1.038-1.823,2.474,2.474,0,0,1,1.616-.647q.058,0,.115,0a4.168,4.168,0,0,1,2.524,1.347,18.523,18.523,0,0,1,2.834,3.754l.241.4-.467-.006h-.1a25.117,25.117,0,0,0-3.341.321A3.035,3.035,0,0,1,563.2,458.313ZM561.825,453a1.945,1.945,0,0,0-1.277.507,2.138,2.138,0,0,0-.857,1.463,2.047,2.047,0,0,0,.623,1.5,4.25,4.25,0,0,0,2.736,1.319c.05,0,.1,0,.147,0a2.517,2.517,0,0,0,.363-.025,28.985,28.985,0,0,1,3.06-.319,16.883,16.883,0,0,0-2.538-3.293A3.618,3.618,0,0,0,561.922,453l-.1,0Z" fill="#ff8d88"/>
    <path id="Leaves_base-7" data-name="Leaves base" d="M572.777,461.85a.259.259,0,0,1-.127.5c-2.325-.588-3.88-.669-4.632-.274a.259.259,0,0,1-.241-.459C568.679,461.146,570.334,461.233,572.777,461.85Z" fill="#ff8d88"/>
    <path id="Leaves_base-8" data-name="Leaves base" d="M565.653,464.72l-.074,0a1.7,1.7,0,0,1-1.1-.518,2.8,2.8,0,0,1-.706-1.23,2.216,2.216,0,0,1,.2-1.887,1.884,1.884,0,0,1,1.452-.771c.253-.023.513-.035.773-.035.153,0,.309,0,.463.012a9.861,9.861,0,0,1,2.37.43,13.178,13.178,0,0,1,2.435,1.047l.459.252-.479.212c-2.093.927-3.82,1.713-5.133,2.335A1.553,1.553,0,0,1,565.653,464.72Zm.55-3.926c-.242,0-.487.011-.726.032a1.389,1.389,0,0,0-1.073.557,2.013,2.013,0,0,0,1.211,2.812h.048a1.007,1.007,0,0,0,.433-.1c1.233-.584,2.8-1.3,4.656-2.123a10.432,10.432,0,0,0-4.114-1.167C566.494,460.8,566.347,460.794,566.2,460.794Z" fill="#ff8d88"/>
    <path id="Leaves_base-9" data-name="Leaves base" d="M577.044,464.947a.259.259,0,0,1-.079.512c-2.7-.418-4.493-.129-5.377.828a.259.259,0,0,1-.381-.352C572.237,464.821,574.186,464.505,577.044,464.947Z" fill="#ff8d88"/>
    <path id="Leaves_base-10" data-name="Leaves base" d="M570.364,469.113c-.063,0-.128,0-.193-.005a6.047,6.047,0,0,1-2-.51,3.628,3.628,0,0,1-1.487-1.04.931.931,0,0,1-.194-.724,1.028,1.028,0,0,1,.508-.651,8.781,8.781,0,0,1,3.029-.971,38.708,38.708,0,0,1,5.17-.457l.823-.027-.66.494a16.837,16.837,0,0,0-3.654,3.366,1.11,1.11,0,0,1-.607.423A2.389,2.389,0,0,1,570.364,469.113Zm4.03-3.808h0c-3.595.165-5.991.608-7.123,1.317-.167.1-.255.2-.275.308a.424.424,0,0,0,.107.325,3.18,3.18,0,0,0,1.271.867,5.6,5.6,0,0,0,1.841.466c.058,0,.114,0,.168,0,.453,0,.761-.1.891-.294a15.109,15.109,0,0,1,3.119-2.992Z" fill="#ff8d88"/>
    <path id="Leaves_base-11" data-name="Leaves base" d="M579.225,465.907a.259.259,0,1,1-.425.3c-2.059-2.952-2.889-4.906-2.45-5.953a.259.259,0,1,1,.478.2C576.489,461.261,577.274,463.111,579.225,465.907Z" fill="#ff8d88"/>
    <path id="Leaves_base-12" data-name="Leaves base" d="M577.461,463.611h0l-.265-.222a7.829,7.829,0,0,1-2.271-3.1,2.764,2.764,0,0,1-.2-1.315,2.259,2.259,0,0,1,.4-1.094,2.062,2.062,0,0,1,1.7-.86q.061,0,.123,0a2.732,2.732,0,0,1,.8.17,1.458,1.458,0,0,1,.87.815,3.635,3.635,0,0,1,.058,2.074,16.468,16.468,0,0,1-1.082,3.214l-.137.317Zm-.624-6.075a1.564,1.564,0,0,0-1.294.646,1.968,1.968,0,0,0-.138,1.909,7.257,7.257,0,0,0,1.858,2.668c.927-2.219,1.222-3.746.877-4.54a.967.967,0,0,0-.566-.544,2.195,2.195,0,0,0-.641-.136Z" fill="#ff8d88"/>
    <path id="Leaves_base-13" data-name="Leaves base" d="M594.1,473.5a.259.259,0,0,1-.434.284c-5.538-8.452-7.027-20.509-2.589-26.182a.259.259,0,1,1,.408.319C587.212,453.384,588.672,465.21,594.1,473.5Z" fill="#ff8d88"/>
    <path id="Leaves_base-14" data-name="Leaves base" d="M589,457.887a.259.259,0,0,1-.416-.31c2.141-2.876,4.111-4.525,5.932-4.936a.259.259,0,0,1,.114.506C592.957,453.524,591.073,455.1,589,457.887Z" fill="#ff8d88"/>
    <path id="Leaves_base-15" data-name="Leaves base" d="M590.2,455.973h0l.249-.442a16.269,16.269,0,0,1,2.432-3.408,4.339,4.339,0,0,1,2.313-1.378,2.422,2.422,0,0,1,.37-.029,2.925,2.925,0,0,1,1.994.895,1.893,1.893,0,0,1,.772,1.529,1.749,1.749,0,0,1-1.012,1.235c-1.16.667-3.323,1.171-6.615,1.542l-.5.057Zm5.355-4.721a2.017,2.017,0,0,0-.288.021,3.694,3.694,0,0,0-1.962,1.147,14.522,14.522,0,0,0-2.149,2.921,17.68,17.68,0,0,0,5.9-1.417c.474-.272.721-.55.755-.848.036-.314-.164-.67-.611-1.087A2.417,2.417,0,0,0,595.551,451.253Z" fill="#ff8d88"/>
    <path id="Leaves_base-16" data-name="Leaves base" d="M589,452.077v0l-.048-.49a16.542,16.542,0,0,1,.036-4.23,4.094,4.094,0,0,1,1.1-2.408,2.329,2.329,0,0,1,1.614-.579,3.931,3.931,0,0,1,.772.082,2.456,2.456,0,0,1,1.211.544,1.227,1.227,0,0,1,.4.822,2.256,2.256,0,0,1-.252,1.111c-.557,1.189-2.015,2.769-4.456,4.832l-.376.318Zm2.749-7.186a1.909,1.909,0,0,0-1.308.464,3.464,3.464,0,0,0-.94,2.019,14.861,14.861,0,0,0-.077,3.664,16.144,16.144,0,0,0,3.939-4.332c.292-.621.28-1.048-.037-1.345a1.947,1.947,0,0,0-.951-.4A3.189,3.189,0,0,0,591.751,444.891Z" fill="#ff8d88"/>
    <path id="Leaves_base-17" data-name="Leaves base" d="M589.046,458.309a.259.259,0,0,1-.5.138,29.43,29.43,0,0,0-2.513-6.938.259.259,0,1,1,.432-.286C587.183,452.3,588.038,454.66,589.046,458.309Z" fill="#ff8d88"/>
    <path id="Leaves_base-18" data-name="Leaves base" d="M587.67,454.539h0l-.352-.3a24.073,24.073,0,0,0-2.841-1.966,3.109,3.109,0,0,1-.485-.374,4.733,4.733,0,0,1-1.413-3.128,2.57,2.57,0,0,1,.633-1.93,2.66,2.66,0,0,1,1.967-.729h.023a2.427,2.427,0,0,1,1.717.618,4.174,4.174,0,0,1,1.067,2.655,18.541,18.541,0,0,1-.242,4.7l-.072.459Zm-2.49-7.914a2.139,2.139,0,0,0-1.6.572,2.041,2.041,0,0,0-.489,1.55,4.249,4.249,0,0,0,1.247,2.769,2.607,2.607,0,0,0,.4.311,29.363,29.363,0,0,1,2.549,1.721,16.867,16.867,0,0,0,.173-4.154,3.621,3.621,0,0,0-.912-2.271,1.931,1.931,0,0,0-1.365-.5h-.013Z" fill="#ff8d88"/>
    <path id="Leaves_base-19" data-name="Leaves base" d="M589.186,460.878a.259.259,0,0,1-.42.3c-1.4-1.944-2.542-3.007-3.372-3.188a.259.259,0,0,1,.111-.507C586.5,457.7,587.711,458.835,589.186,460.878Z" fill="#ff8d88"/>
    <path id="Leaves_base-20" data-name="Leaves base" d="M588.43,460.461h0l-.5-.144c-2.21-.638-4.038-1.146-5.433-1.51a1.529,1.529,0,0,1-.665-.358,1.705,1.705,0,0,1-.508-1.1,2.8,2.8,0,0,1,.251-1.4,2.213,2.213,0,0,1,1.367-1.316,1.642,1.642,0,0,1,.441-.061,2.037,2.037,0,0,1,1.167.4,8.667,8.667,0,0,1,.961.777,9.815,9.815,0,0,1,1.538,1.854,13.081,13.081,0,0,1,1.194,2.367l.188.486Zm-5.048-5.365a1.149,1.149,0,0,0-.311.043,2.012,2.012,0,0,0-.879,2.931,1,1,0,0,0,.432.235c1.309.342,2.968.8,4.932,1.365a10.438,10.438,0,0,0-2.4-3.539,8.2,8.2,0,0,0-.9-.731A1.523,1.523,0,0,0,583.382,455.1Z" fill="#ff8d88"/>
    <path id="Leaves_base-21" data-name="Leaves base" d="M590.464,465.993a.259.259,0,1,1-.39.341c-1.8-2.059-3.359-2.987-4.651-2.822a.259.259,0,1,1-.065-.514C586.863,462.806,588.559,463.817,590.464,465.993Z" fill="#ff8d88"/>
    <path id="Leaves_base-22" data-name="Leaves base" d="M583.773,465.385a1.272,1.272,0,0,1-.477-.1,2.593,2.593,0,0,1-.772-.522,6.048,6.048,0,0,1-1.207-1.678,3.631,3.631,0,0,1-.47-1.752.932.932,0,0,1,.317-.68.921.921,0,0,1,.594-.187,1.537,1.537,0,0,1,.213.016,8.751,8.751,0,0,1,2.946,1.2,38.811,38.811,0,0,1,4.253,2.973l.648.508-.823-.046c-.721-.04-1.388-.061-1.983-.061a11.528,11.528,0,0,0-2.98.291A.948.948,0,0,1,583.773,465.385Zm-2.027-4.4a.393.393,0,0,0-.254.071.424.424,0,0,0-.128.317,3.183,3.183,0,0,0,.418,1.481,5.616,5.616,0,0,0,1.111,1.541,1.453,1.453,0,0,0,.876.475.446.446,0,0,0,.122-.016,12.093,12.093,0,0,1,3.136-.311c.369,0,.765.008,1.177.023-2.861-2.184-4.981-3.386-6.3-3.569A1.135,1.135,0,0,0,581.746,460.982Z" fill="#ff8d88"/>
    <path id="Leaves_base-23" data-name="Leaves base" d="M591.517,468.13a.259.259,0,1,1-.516-.046c.32-3.585.94-5.615,1.95-6.136a.259.259,0,0,1,.238.461C592.408,462.811,591.821,464.734,591.517,468.13Z" fill="#ff8d88"/>
    <path id="Leaves_base-24" data-name="Leaves base" d="M591.642,465.237h0l-.06-.341a7.82,7.82,0,0,1,.256-3.838,2.769,2.769,0,0,1,.69-1.138,2.262,2.262,0,0,1,1.012-.578,2.068,2.068,0,0,1,.516-.066,2.108,2.108,0,0,1,1.434.584,2.742,2.742,0,0,1,.5.644,1.457,1.457,0,0,1,.143,1.185,3.635,3.635,0,0,1-1.29,1.625,16.5,16.5,0,0,1-2.894,1.767l-.309.155Zm2.4-5.441a1.538,1.538,0,0,0-.382.049,1.971,1.971,0,0,0-1.333,1.373,7.272,7.272,0,0,0-.292,3.238c2.136-1.1,3.344-2.083,3.589-2.914a.964.964,0,0,0-.084-.78,2.184,2.184,0,0,0-.4-.517A1.615,1.615,0,0,0,594.045,459.8Z" fill="#ff8d88"/>
    <path id="Leaves_base-25" data-name="Leaves base" d="M595.745,475.744a.259.259,0,0,1,.314.413c-8.046,6.114-19.969,8.44-25.937,4.409a.259.259,0,0,1,.29-.43C576.162,484.02,587.858,481.738,595.745,475.744Z" fill="#ff8d88"/>
    <path id="Leaves_base-26" data-name="Leaves base" d="M580.529,481.922a.259.259,0,1,1-.28.437c-3.019-1.935-4.8-3.786-5.337-5.573a.259.259,0,1,1,.5-.149C575.9,478.279,577.6,480.048,580.529,481.922Z" fill="#ff8d88"/>
    <path id="Leaves_base-27" data-name="Leaves base" d="M578.537,480.863h0l-.456-.217a16.273,16.273,0,0,1-3.57-2.189,4.339,4.339,0,0,1-1.535-2.21,2.784,2.784,0,0,1,.7-2.419,1.942,1.942,0,0,1,1.422-.879h.05a1.749,1.749,0,0,1,1.3.923c.746,1.109,1.4,3.232,2,6.491l.092.5Zm-3.449-7.4c-.308,0-.639.224-1.013.686a2.306,2.306,0,0,0-.58,1.983,3.69,3.69,0,0,0,1.281,1.877,14.439,14.439,0,0,0,3.065,1.939,17.7,17.7,0,0,0-1.825-5.791c-.306-.454-.6-.681-.9-.694h-.029Z" fill="#ff8d88"/>
    <path id="Leaves_base-28" data-name="Leaves base" d="M571.031,482.713c-.358,0-.7-.016-1.007-.046a4.1,4.1,0,0,1-2.48-.932,2.616,2.616,0,0,1-.661-2.345,2.462,2.462,0,0,1,.457-1.245,1.223,1.223,0,0,1,.793-.454,1.542,1.542,0,0,1,.229-.017,2.517,2.517,0,0,1,.9.19c1.224.473,2.9,1.817,5.132,4.108l.345.354-.488.083A19.86,19.86,0,0,1,571.031,482.713Zm-2.666-4.525a.766.766,0,0,0-.633.29,1.952,1.952,0,0,0-.336.977,2.136,2.136,0,0,0,.531,1.9,3.45,3.45,0,0,0,2.079.8,9.193,9.193,0,0,0,.987.049,18.4,18.4,0,0,0,2.674-.227,16.188,16.188,0,0,0-4.6-3.628A2,2,0,0,0,568.365,478.188Z" fill="#ff8d88"/>
    <path id="Leaves_base-29" data-name="Leaves base" d="M580.947,481.847a.259.259,0,1,1,.173.489,29.423,29.423,0,0,0-6.746,2.99.259.259,0,0,1-.316-.411C575.088,484.124,577.377,483.107,580.947,481.847Z" fill="#ff8d88"/>
    <path id="Leaves_base-30" data-name="Leaves base" d="M571.491,488.987a2.435,2.435,0,0,1-1.581-.518,2.664,2.664,0,0,1-.865-1.911,2.438,2.438,0,0,1,.5-1.78,4.166,4.166,0,0,1,2.573-1.249,13.883,13.883,0,0,1,2.447-.19c.688,0,1.446.035,2.256.1l.465.04-.28.374a24.123,24.123,0,0,0-1.763,2.971,3.069,3.069,0,0,1-.338.51,4.732,4.732,0,0,1-3.022,1.628A3.639,3.639,0,0,1,571.491,488.987Zm3.034-5.132a12.953,12.953,0,0,0-2.359.186,3.623,3.623,0,0,0-2.2,1.067,1.936,1.936,0,0,0-.4,1.409,2.14,2.14,0,0,0,.681,1.553,1.879,1.879,0,0,0,1.237.4,3.226,3.226,0,0,0,.344-.019,4.241,4.241,0,0,0,2.675-1.438,2.556,2.556,0,0,0,.283-.425,29.043,29.043,0,0,1,1.54-2.663c-.633-.045-1.237-.068-1.8-.068Z" fill="#ff8d88"/>
    <path id="Leaves_base-31" data-name="Leaves base" d="M583.5,481.528a.259.259,0,1,1,.332.4c-1.842,1.535-2.822,2.746-2.944,3.586a.259.259,0,0,1-.513-.075C580.521,484.43,581.565,483.141,583.5,481.528Z" fill="#ff8d88"/>
    <path id="Leaves_base-32" data-name="Leaves base" d="M580.122,489.653a2.95,2.95,0,0,1-1.008-.185,2.216,2.216,0,0,1-1.408-1.273,1.884,1.884,0,0,1,.229-1.628,8.834,8.834,0,0,1,.708-1.013,9.866,9.866,0,0,1,1.742-1.664,13.14,13.14,0,0,1,2.278-1.355l.474-.223-.11.512c-.475,2.21-.854,4.069-1.128,5.525a1.521,1.521,0,0,1-.311.689,1.7,1.7,0,0,1-1.063.583A2.432,2.432,0,0,1,580.122,489.653Zm-1.077-3.773h0a8.14,8.14,0,0,0-.665.952,1.39,1.39,0,0,0-.18,1.2,1.7,1.7,0,0,0,1.091.952,2.448,2.448,0,0,0,.826.153,1.334,1.334,0,0,0,1.07-.433.991.991,0,0,0,.2-.447c.246-1.309.588-3,1.018-5.015a10.419,10.419,0,0,0-3.362,2.642Z" fill="#ff8d88"/>
    <path id="Leaves_base-33" data-name="Leaves base" d="M588.513,479.9a.259.259,0,0,1,.368.365c-1.928,1.942-2.745,3.559-2.491,4.836a.259.259,0,1,1-.508.1C585.586,483.711,586.476,481.949,588.513,479.9Z" fill="#ff8d88"/>
    <path id="Leaves_base-34" data-name="Leaves base" d="M584.543,489.814h-.009a.932.932,0,0,1-.7-.268,1.036,1.036,0,0,1-.227-.794,8.744,8.744,0,0,1,1-3.021,38.525,38.525,0,0,1,2.668-4.451l.462-.682.012.824a16.82,16.82,0,0,0,.576,4.935,1.117,1.117,0,0,1-.014.739,2.594,2.594,0,0,1-.466.807,6.037,6.037,0,0,1-1.59,1.32A3.644,3.644,0,0,1,584.543,489.814Zm2.7-7.563h0c-1.979,3-3.029,5.2-3.121,6.536a.529.529,0,0,0,.088.4.424.424,0,0,0,.325.1h.005a3.2,3.2,0,0,0,1.444-.519,5.63,5.63,0,0,0,1.459-1.215c.339-.419.477-.784.389-1.028a15.04,15.04,0,0,1-.589-4.282Z" fill="#ff8d88"/>
    <path id="Leaves_base-35" data-name="Leaves base" d="M590.572,478.7a.259.259,0,0,1-.01.518c-3.6-.069-5.667-.546-6.257-1.517a.259.259,0,0,1,.443-.269C585.2,478.179,587.163,478.63,590.572,478.7Z" fill="#ff8d88"/>
    <path id="Leaves_base-36" data-name="Leaves base" d="M585.376,479.1a7.72,7.72,0,0,1-1.882-.234,2.761,2.761,0,0,1-1.183-.609,2.273,2.273,0,0,1-.648-.968,2.064,2.064,0,0,1,.381-1.982,2.711,2.711,0,0,1,.608-.548,1.477,1.477,0,0,1,.832-.264,1.547,1.547,0,0,1,.34.039,3.631,3.631,0,0,1,1.711,1.173,16.5,16.5,0,0,1,1.965,2.764l.176.3-.337.085A8.109,8.109,0,0,1,585.376,479.1Zm-1.9-4.075a.944.944,0,0,0-.534.165,2.182,2.182,0,0,0-.487.437,1.566,1.566,0,0,0-.3,1.5,1.968,1.968,0,0,0,1.463,1.234,7.2,7.2,0,0,0,1.756.218,7.464,7.464,0,0,0,1.494-.153c-1.249-2.054-2.311-3.19-3.157-3.377A1.1,1.1,0,0,0,583.475,475.029Z" fill="#ff8d88"/>
  </g>
  <g id="Leaves-3" data-name="Leaves" transform="translate(-492.025 -317.244)">
    <g id="Group_28" data-name="Group 28">
      <path id="Leaf_base" data-name="Leaf base" d="M737.3,479.949q-3.443-89.7,20.1-94.635T737.3,479.949Z" fill="#fff"/>
      <path id="Leaf_base-2" data-name="Leaf base" d="M737.7,473.592s10.739-61.7,18.789-71.039" fill="none" stroke="#7990dd" stroke-linecap="round" stroke-width="2"/>
    </g>
    <g id="Group_29" data-name="Group 29">
      <path id="Leaf_base-3" data-name="Leaf base" d="M734.588,490.821c-1.941-43.869-42.679-98.569-14.221-114.489S739.4,472.359,734.588,490.821Z" fill="#7990dd"/>
      <path id="Leaf_base-4" data-name="Leaf base" d="M736.057,478.118s-8.328-67.662-11.515-80.864" fill="none" stroke="#fff" stroke-linecap="round" stroke-width="2"/>
    </g>
    <g id="Group_25" data-name="Group 25">
      <path id="Leaf_base-5" data-name="Leaf base" d="M739.244,486.069c-22.656-28.131-43.583-35.489-43.9-22.088S718.568,469.477,739.244,486.069Z" fill="#7990dd"/>
      <path id="Leaf_base-6" data-name="Leaf base" d="M733.562,481.385s-7.963-9.094-24.984-16.007" fill="none" stroke="#fff" stroke-linecap="round" stroke-width="2"/>
    </g>
    <g id="Group_27" data-name="Group 27">
      <path id="Leaf_base-7" data-name="Leaf base" d="M733.321,491.017c5.473-35.134,31.966-77.825,42.989-55.232S748.725,469.492,733.321,491.017Z" fill="#7990dd"/>
      <path id="Leaf_base-8" data-name="Leaf base" d="M734.621,487.87s12.6-27.8,26.915-39.21" fill="none" stroke="#fff" stroke-linecap="round" stroke-width="2"/>
    </g>
    <g id="Group_26" data-name="Group 26">
      <path id="Leaf_base-9" data-name="Leaf base" d="M732.8,492.369c6.569-12.9,30.044-25.6,38.191-14.89S740.921,486.788,732.8,492.369Z" fill="#fff"/>
      <path id="Leaf_base-10" data-name="Leaf base" d="M764.245,478.939s-15.233,0-30.467,11.9" fill="none" stroke="#7990dd" stroke-linecap="round" stroke-width="2"/>
    </g>
    <g id="Leaf_base-11" data-name="Leaf base">
      <path id="Leaf_base-12" data-name="Leaf base" d="M735.469,485.251c-11.608-50.149-35.618-72.918-45.614-56.173S718.4,450.965,735.469,485.251Z" fill="#fff"/>
      <path id="Leaf_base-13" data-name="Leaf base" d="M732.491,477.023s-11.132-24.469-27.974-35.732" fill="none" stroke="#7990dd" stroke-linecap="round" stroke-width="2"/>
    </g>
  </g>
  <g id="Leaves-4" data-name="Leaves" transform="translate(-492.025 -317.244)">
    <g id="Leaf">
      <path id="Leaf_base-14" data-name="Leaf base" d="M619.726,490.883c7.988-5.8,15.547-13.653,9.14-21.9s-10.793-.038-14.45-3.331,1.4-12.6-6.086-18.17-15,1.674-17.157-4.409-9.036-6.5-10.362-5.163-2.348,1.45-2.086,8.57-2.515,9.423-.274,13.911,8.607,2.9,12.1,9.5-2.565,13.719,5.3,20.8S611.738,496.68,619.726,490.883Z" fill="#ff8e88"/>
      <path id="Leaf_base-15" data-name="Leaf base" d="M614.355,486.968q8.506-4.977,12.518-20.107-.183-.154-.364-.291-4,15.273-12.546,20.132c-.969-.665-1.948-1.38-2.927-2.139l.136-.037-.113-.411c-.148.041-.3.081-.443.119a73.027,73.027,0,0,1-7.072-6.386q-1.5-1.54-2.891-3.144a26.3,26.3,0,0,0,12.023-19.184c-.057-.51-.135-1.022-.241-1.531q-1.374,13.463-12.063,20.389-1.114-1.3-2.154-2.632,10.406-5.123,13.069-19.972l-.419-.075q-2.629,14.692-12.916,19.7a55.775,55.775,0,0,1-9.685-18.511q-.04-.141-.082-.285,3.434-1.674,4.852-7.29a3.1,3.1,0,0,1-.387-.21q-1.341,5.451-4.591,7.086-.323-1.027-.77-2.153,2.726-1.916,3.86-7.041-.133-.366-.288-.7-1.044,5.386-3.736,7.34a76.4,76.4,0,0,0-6.348-11.691c-.107.107-.212.205-.314.3a75.361,75.361,0,0,1,6.3,11.632q-3.059,1.889-8.116-.275c-.013.15-.028.3-.044.444q5.142,2.149,8.321.232.432,1.1.744,2.094-3.531,1.479-9.208-1.22c-.023.148-.046.295-.07.438q5.744,2.689,9.4,1.192c.022.075.044.15.065.225a46,46,0,0,0,1.88,5.344,29.119,29.119,0,0,1-12.157-1.138q.01.229.036.459a29.7,29.7,0,0,0,12.3,1.089,57.649,57.649,0,0,0,4.8,8.833,30.3,30.3,0,0,1-5.677.073q.194.219.38.457a31.114,31.114,0,0,0,5.562-.13q1.217,1.821,2.579,3.594a25.026,25.026,0,0,1-5.911,1.854q.027.212.046.424a25.457,25.457,0,0,0,6.132-1.933,74.4,74.4,0,0,0,5.415,6.211,73.488,73.488,0,0,0,6.858,6.221q-10.1,2.5-18.443-1.544.027.251.064.5,8.514,4.01,18.8,1.375,1.518,1.189,3.028,2.232-8.383,4.462-21.061-.8.119.283.257.566,12.743,5.149,21.2.5a45.25,45.25,0,0,0,6.036,3.5l.391-.288A44,44,0,0,1,614.355,486.968Z" fill="#fff"/>
    </g>
    <g id="Leaf-2" data-name="Leaf">
      <path id="Leaf_base-16" data-name="Leaf base" d="M627.664,492.059c-11.062,2.4-23.549,2.825-25.661-9.187s8.244-9.4,8.244-15.152-11.8-8.635-10.808-19.492,15.958-11.765,12.433-18.4-6.572-17.19,0-18.675,3.552,4.786,9.416,10.581,9.954,5.183,12.058,10.639-4.131,9.74-1.195,17.937,13.65,8.5,13.65,20.86S638.726,489.655,627.664,492.059Z" fill="#374abe"/>
      <path id="Leaf_base-17" data-name="Leaf base" d="M628.5,484.188q-10.8,3.641-26.778-4.568.005-.24.019-.469,16.075,8.319,26.822,4.565c.178-1.384.32-2.816.423-4.284l-.127.082-.23-.358q.2-.127.393-.256A87.014,87.014,0,0,0,629,467.812q-.168-2.59-.481-5.137a30,30,0,0,1-25.229-4.008c-.35-.385-.691-.784-1.016-1.2q12.277,8.62,26.192,4.78-.258-2.019-.606-4-12.494,5.131-27.225-3.953l.224-.363q14.59,9,26.924,3.887a65.948,65.948,0,0,0-8.327-22.806q-.1-.154-.191-.314-3.327,1.379-7.885-.509.146-.172.275-.347,4.27,1.742,7.391.485-.644-1.109-1.276-2.413a9.628,9.628,0,0,1-5.377-.469,3.54,3.54,0,0,0-.079-.474,9.407,9.407,0,0,0,5.268.551q-3.411-7.209-6.486-20.134c.13-.05.265-.1.406-.137q3.088,12.984,6.5,20.163,3.984-1.171,6.032-7.284.181.138.358.269-2.117,6.161-6.2,7.4.62,1.272,1.25,2.354,4-1.9,6.058-8.98.188.126.372.246-2.113,7.119-6.211,9.1c.054.09.108.178.162.266a54.062,54.062,0,0,1,3.088,5.766,31.668,31.668,0,0,0,8.3-11.521q.166.162.324.334a32.245,32.245,0,0,1-8.437,11.594,68.277,68.277,0,0,1,3.916,11.293,35.609,35.609,0,0,0,4.436-4.826c.025.193.054.388.088.585a36.507,36.507,0,0,1-4.407,4.709q.6,2.421,1.058,4.926a29.572,29.572,0,0,0,6.128-3.644q.138.163.28.322a29.989,29.989,0,0,1-6.33,3.752,89.087,89.087,0,0,1,1.2,20.524q9.986-6.754,12.883-17.2.169.193.332.393-3.036,10.544-13.249,17.338c-.1,1.513-.241,2.988-.42,4.414q10.192-3.841,15.537-18.768.128.283.244.577-5.471,14.9-15.843,18.668a53.906,53.906,0,0,1-1.669,8.111l-.475.1A52.6,52.6,0,0,0,628.5,484.188Z" fill="#fff"/>
    </g>
    <g id="Leaf-3" data-name="Leaf">
      <path id="Leaf_base-18" data-name="Leaf base" d="M642.259,491.925c-10.89.353-22.3-1.635-19.55-14.556s9.157-2.918,11.794-9.784-5.8-10.326-5.632-16.55,12.254-3.091,11.762-6.372c-.534-3.559-5.586-7.111-3.569-14.041s11.211-1.56,10.6-9.152-1.765-13.792,4.727-14.062,7.742,7.379,10.779,14.554,7.51,2.818,7.293,8.909-7.488,9.34-8.015,18.448,9,11.5,4.22,24.378S653.15,491.572,642.259,491.925Z" fill="#000140"/>
      <path id="Leaf_base-19" data-name="Leaf base" d="M644.873,491.745a32.424,32.424,0,0,0,2.731-10.267q-9.077.112-16.661-11.177c.167,0,.332-.012.5-.028q7.4,10.907,16.221,10.777c.017-.132.033-.266.049-.4.287-2.375,1.249-13.767,1.611-17.167q.254-2.389.553-4.774-10.583-.586-16.153-11.76c.145-.027.291-.053.437-.077q5.469,10.869,15.769,11.413a253.451,253.451,0,0,1,4.939-26.857,24.63,24.63,0,0,0,.62-4.11q-3.816-.855-7.868-6.46c0-.005,0-.01,0-.016l.339-.244q3.921,5.438,7.554,6.29.425-9.393-6.831-18.085a3.855,3.855,0,0,1,.312-.29q7.4,8.854,6.942,18.459,3.954.637,7.617-4.194.107.214.216.412-3.765,4.843-7.858,4.208a25.113,25.113,0,0,1-.628,4.128c-.588,2.487-1.126,4.894-1.619,7.24q9.437-3.879,12.2-13.058.184.138.368.255-2.85,9.275-12.429,13.208l-.147-.358c-1.072,5.1-1.93,9.917-2.628,14.629a37.537,37.537,0,0,0,11.5-1.935q.027.216.061.428a38.2,38.2,0,0,1-11.619,1.935v-.016q-.327,2.236-.609,4.449l.054,0-.013.426-.095,0q-.3,2.4-.556,4.8c-.272,2.56-.887,9.678-1.3,14.042,10.242-1.3,15.488-6.667,17.749-17.139l.146.031q.1.2.2.4c-2.346,10.447-7.753,15.853-18.131,17.138-.115,1.214-.211,2.173-.274,2.7q-.021.169-.041.336,9.152-.417,19.863-12.633-.034.362-.086.739-10.647,11.936-19.832,12.324a33.43,33.43,0,0,1-2.663,10.221h-.01Q645.118,491.718,644.873,491.745Z" fill="#fff"/>
    </g>
  </g>
  <g id="Iphone_" data-name="Iphone " transform="translate(-492.025 -317.244)">
    <g id="Iphone">
      <path id="Iphone_base" data-name="Iphone base" d="M717.4,341.183a14.255,14.255,0,0,0-7.057-12.3l-1.387-.811a.518.518,0,0,0-.78.447V509.107a.518.518,0,0,0,.879.372l4.018-3.9A14.256,14.256,0,0,0,717.4,495.35Z" fill="#2d3053"/>
      <path id="Iphone_base-2" data-name="Iphone base" d="M646.237,346.08a5.184,5.184,0,0,1,3.918-5.027l54.687-13.766a5.184,5.184,0,0,1,6.449,5.027V505.364a5.184,5.184,0,0,1-6.449,5.027l-54.687-13.766a5.184,5.184,0,0,1-3.918-5.027Z" fill="#2d3053"/>
    </g>
    <g id="Display_Store" data-name="Display Store">
      <path id="Mask" d="M649.865,348.806a5.184,5.184,0,0,1,3.928-5.029l45.356-11.321a5.184,5.184,0,0,1,6.439,5.029V500.194a5.184,5.184,0,0,1-6.439,5.029L653.793,493.9a5.184,5.184,0,0,1-3.928-5.029Z" fill="#fff"/>
      <g id="Display_store-2" data-name="Display store">
        <g id="Display_store_" data-name="Display store ">
          <path id="Display_store_base" data-name="Display store base" d="M671.739,438.417H650V416.6h21.741v21.817Zm-20.2-20.277h0v18.73H670.19V418.14Z" fill="#7990dd"/>
          <path id="Display_store_base-2" data-name="Display store base" d="M671.739,418.144H650V396.327h21.741v21.816Zm-20.2-20.273h0V416.6H670.19V397.87Z" fill="#7990dd"/>
          <path id="Display_store_base-3" data-name="Display store base" d="M691.936,458.69H670.2V436.873h21.74v21.816Zm-20.2-20.27h0v18.73h18.65V438.42Z" fill="#ff8d88"/>
          <path id="Display_store_base-4" data-name="Display store base" d="M705.848,458.69H690.394V436.873h15.454v21.816ZM691.49,438.42h0v18.73H704.75V438.42Z" fill="#ff8d88"/>
        </g>
        <g id="Display_store_2" data-name="Display store ">
          <path id="Display_store_base-5" data-name="Display store base" d="M660.748,413.655c-.4,1.286,5.544.226,5.81-.341q.563,2.226-.224,2.854c-.252.2-10.255.112-10.642-.4s.248-1.166,1-1.326Q657.442,414.279,660.748,413.655Z" fill="#7990dd"/>
          <path id="Display_store_base-6" data-name="Display store base" d="M660.748,413.655q-.6,1.929,1.907,1.438c.763-.15,1.861-.522,2.682-.725a1.789,1.789,0,0,0,1.22-1.054q.563,2.226-.224,2.854c-.252.2-5.718.554-6.439.592-.581.031-3.816-.48-4.2-.995s.248-1.166,1-1.326Q657.442,414.279,660.748,413.655Z" fill="#ff8e88"/>
        </g>
        <g id="Display_store_3" data-name="Display store ">
          <path id="Display_store_base-7" data-name="Display store base" d="M658.546,432.468c.338,1.311,4.764-2.765,4.69-3.391q1.636,1.6,1.306,2.556c-.106.306-.267,5.106-.593,5.095q-.286-.01-.26-4.3a26.423,26.423,0,0,1-3.585,4.206,12.9,12.9,0,0,1-4.69.329c-.593-.233-.4-1.128.143-1.665Q656.1,434.764,658.546,432.468Z" fill="#7990dd"/>
          <path id="Display_store_base-8" data-name="Display store base" d="M658.546,432.468q.507,1.967,2.351.21c.561-.535,1.286-1.439,1.868-2.05a1.822,1.822,0,0,0,.471-1.551q1.636,1.6,1.306,2.556c-.106.306-.267,5.106-.593,5.095q-.286-.01-.26-4.3a26.423,26.423,0,0,1-3.585,4.206,12.9,12.9,0,0,1-4.69.329c-.593-.233-.4-1.128.143-1.665Q656.1,434.764,658.546,432.468Z" fill="#ff8e88"/>
        </g>
        <rect id="Display_store_base-9" data-name="Display store base" width="33.95" height="1.56" transform="translate(671.38 399.53)" fill="#7990dd"/>
        <g id="Display_store_base-10" data-name="Display store base">
          <path id="Rectangle_23_Copy" data-name="Rectangle 23 Copy" d="M676.418,397.975h0a.471.471,0,0,1,.471.471v8.332a.471.471,0,0,1-.471.471h0a.47.47,0,0,1-.471-.471v-8.332A.47.47,0,0,1,676.418,397.975Z" fill="#fff"/>
          <path id="Rectangle_23" data-name="Rectangle 23" d="M676.575,402.612h0a1.568,1.568,0,0,1,1.57,1.57v26.226a1.568,1.568,0,0,1-1.57,1.57h0a1.568,1.568,0,0,1-1.57-1.57V404.182A1.568,1.568,0,0,1,676.575,402.612Z" fill="#ff8e88"/>
          <path id="Rectangle_23_Copy_2" data-name="Rectangle 23 Copy 2" d="M675.214,404.457a1.659,1.659,0,0,1,1.648-1.845h0a1.48,1.48,0,0,1,1.427,1.275l1.322,11.713a.829.829,0,0,1-.824.922h-1.47a.83.83,0,0,1-.824-.736Z" fill="#7990dd"/>
        </g>
        <g id="Display_store_4" data-name="Display store ">
          <path id="Display_store_base-11" data-name="Display store base" d="M685.23,397.975h0a.47.47,0,0,1,.471.471v8.332a.47.47,0,0,1-.471.471h0a.471.471,0,0,1-.471-.471v-8.332A.471.471,0,0,1,685.23,397.975Z" fill="#fff"/>
          <path id="Display_store_base-12" data-name="Display store base" d="M685.388,402.612h0a1.568,1.568,0,0,1,1.569,1.57v26.226a1.568,1.568,0,0,1-1.569,1.57h0a1.568,1.568,0,0,1-1.57-1.57V404.182A1.568,1.568,0,0,1,685.388,402.612Z" fill="#ff8e88"/>
          <path id="Display_store_base-13" data-name="Display store base" d="M684.026,404.457a1.659,1.659,0,0,1,1.648-1.845h0a1.48,1.48,0,0,1,1.427,1.275l1.322,11.713a.829.829,0,0,1-.824.922h-1.47a.829.829,0,0,1-.824-.736Z" fill="#7990dd"/>
        </g>
        <g id="Display_store_5" data-name="Display store ">
          <path id="Display_store_base-14" data-name="Display store base" d="M689.9,397.975h0a.47.47,0,0,1,.471.471v8.332a.47.47,0,0,1-.471.471h0a.471.471,0,0,1-.471-.471v-8.332A.471.471,0,0,1,689.9,397.975Z" fill="#fff"/>
          <path id="Display_store_base-15" data-name="Display store base" d="M690.053,402.612h0a1.568,1.568,0,0,1,1.57,1.57v26.226a1.568,1.568,0,0,1-1.57,1.57h0a1.568,1.568,0,0,1-1.57-1.57V404.182A1.568,1.568,0,0,1,690.053,402.612Z" fill="#ff8e88"/>
          <path id="Display_store_base-16" data-name="Display store base" d="M688.691,404.457a1.659,1.659,0,0,1,1.648-1.845h0a1.48,1.48,0,0,1,1.427,1.275l1.322,11.713a.829.829,0,0,1-.824.922h-1.47a.829.829,0,0,1-.824-.736Z" fill="#7990dd"/>
        </g>
        <g id="Display_store_6" data-name="Display store ">
          <path id="Display_store_base-17" data-name="Display store base" d="M694.3,397.975h0a.47.47,0,0,1,.471.471v8.332a.47.47,0,0,1-.471.471h0a.471.471,0,0,1-.471-.471v-8.332A.47.47,0,0,1,694.3,397.975Z" fill="#fff"/>
          <path id="Display_store_base-18" data-name="Display store base" d="M694.458,402.612h0a1.568,1.568,0,0,1,1.57,1.57v26.226a1.568,1.568,0,0,1-1.57,1.57h0a1.568,1.568,0,0,1-1.57-1.57V404.182A1.568,1.568,0,0,1,694.458,402.612Z" fill="#ff8e88"/>
          <path id="Display_store_base-19" data-name="Display store base" d="M693.1,404.457a1.659,1.659,0,0,1,1.648-1.845h0a1.48,1.48,0,0,1,1.427,1.275l1.322,11.713a.829.829,0,0,1-.824.922H695.2a.829.829,0,0,1-.824-.736Z" fill="#7990dd"/>
        </g>
        <g id="Display_store_7" data-name="Display store ">
          <path id="Display_store_base-20" data-name="Display store base" d="M698.708,397.975h0a.47.47,0,0,1,.471.471v8.332a.471.471,0,0,1-.471.471h0a.47.47,0,0,1-.471-.471v-8.332A.47.47,0,0,1,698.708,397.975Z" fill="#fff"/>
          <path id="Display_store_base-21" data-name="Display store base" d="M698.865,402.612h0a1.568,1.568,0,0,1,1.57,1.57v26.226a1.568,1.568,0,0,1-1.57,1.57h0a1.568,1.568,0,0,1-1.57-1.57V404.182A1.568,1.568,0,0,1,698.865,402.612Z" fill="#ff8e88"/>
          <path id="Display_store_base-22" data-name="Display store base" d="M697.5,404.457a1.659,1.659,0,0,1,1.648-1.845h0a1.48,1.48,0,0,1,1.427,1.275L701.9,415.6a.829.829,0,0,1-.824.922h-1.47a.829.829,0,0,1-.824-.736Z" fill="#7990dd"/>
        </g>
      </g>
      <g id="Poster">
        <rect id="Poster_base" data-name="Poster base" width="15.81" height="19.7" transform="translate(683.04 362.21)" fill="#374abe"/>
        <rect id="Poster_base-2" data-name="Poster base" width="12.18" height="15.81" transform="translate(684.85 364.02)" fill="#fff"/>
      </g>
      <g id="Poster-2" data-name="Poster">
        <rect id="Poster_base-3" data-name="Poster base" width="20.99" height="27.47" transform="translate(652.72 358.32)" fill="#ff8d88"/>
        <rect id="Poster_base-4" data-name="Poster base" width="16.18" height="22.05" transform="translate(655.13 360.85)" fill="#fff"/>
      </g>
    </g>
    <path id="Iphone_base-3" data-name="Iphone base" d="M657.641,342.767l37.322-9.211-.581,6.479a5.184,5.184,0,0,1-4.214,4.632l-25.66,4.776a5.184,5.184,0,0,1-5.9-3.56Z" fill="#2d3053"/>
  </g>
  <g id="Girl" transform="translate(-492.025 -317.244)">
    <g id="Body">
      <path id="Body-2" data-name="Body" d="M653.155,403.32c6.215-4.3,4.994-2.191,8.823.474,2.078,1.446,5.1,8.074,1.57,22.139-1.107,4.41,5.622,4.717,6.249,7.861-5.525,3.046-15.184,7.293-19.091,1.634,1.481-2.8,1.617-5.315,1.652-10.42.039-5.659-3.883-9.932-3.021-13.121C650.048,409.255,652.224,403.964,653.155,403.32Z" fill="#ffb0b6"/>
      <path id="Shadow" d="M650.963,396.823c.706-3.349,4.479-5.03,4.479-5.03l3.037,9.771-5.637,2.564S653.38,399.548,650.963,396.823Z" fill="#e9989e"/>
      <path id="Shadow-2" data-name="Shadow" d="M653.155,403.32c6.215-4.3,4.994-2.191,8.823.474,2.078,1.446,5.1,8.074,1.57,22.139-1.107,4.41,5.622,4.717,6.249,7.861-2.01,1.108-12.733,1.935-15.361,2.826-2.214.751-2.716-1.718,2.428-9.531,3.443-5.229-7.974-13.55-7.527-15.2C650.048,409.255,652.224,403.964,653.155,403.32Z" fill="#e9989e"/>
      <path id="Shirt" d="M652.736,403.661c.029-.02-.253-.128-.254-.329,0-.1.192-.206.194-.342,0-.059-.194-.12-.194-.184a12.643,12.643,0,0,1,.194-2.61,32.017,32.017,0,0,1,4.574-2.7c1.522,1.6,2.481,4.432,4.75,6,2.092,1.446,5.949,8.331,2.393,22.395-.545,2.153-4.243,1.557-6.867,1.472-2.751-.09-6.03.329-6.012-2.283.04-5.659-3.743-9.364-2.875-12.552C649.356,409.9,651.8,404.305,652.736,403.661Z" fill="#fff"/>
      <path id="Shadow-3" data-name="Shadow" d="M652.736,403.661c.063-.043-.372-.149-.239-.349.06-.09.262-.246.239-.341-.028-.115-.294-.313-.2-.29,1.23.29,1.412-.055,3.565-.467.11.115-3.539,1.076-3.2,1.178,1.658.5,5.8-1.237,7.931-1.8,1.724.62,4.617,3.793,4,4.058s-7.752-.263-7.533-2.482C654.78,403.856,652.137,404.073,652.736,403.661Z" fill="#e9edf0"/>
      <path id="Shadow-4" data-name="Shadow" d="M659.694,407.107c2.047-1.491,8.255,4.724,4.7,18.787-.545,2.153-4.243,1.557-6.867,1.472,4.076,0,.976-1.9,1.137-3.326.008-.071,1.434-3.82,0-4.071s-.133-1.949-.832-2.011c-2.85-.253-5.836.151-5.424,0,1.556-.571,3.682-.432,4.587-3.85.615-2.321-.488-3.971.667-5.238A13.285,13.285,0,0,1,659.694,407.107Z" fill="#e9edf0"/>
    </g>
    <g id="Foot">
      <path id="Leg" d="M650.306,516.269c-2.363,1.029.137-2.069.723-6.345-.137-3.474.354-5.256,0-8.151-.273-2.24,3.65-3.489,4.239,1.663.293,2.561,0,5.588.066,8,.1.754-.33,2.5-1.178,2.776C654.156,514.217,650.985,515.973,650.306,516.269Z" fill="#ffb0b6"/>
      <path id="Shoes" d="M650.036,513.547s.844,2.23,2.819-.049c.6-.693,1.352-1.838,1.969-2.624a2.446,2.446,0,0,0,.37-1.867s2.14,1.661,1.865,2.817c-.088.37.309,5.988-.08,6.015-.341.024-.836-4.977-.836-4.977a45.011,45.011,0,0,1-3.744,5.352,15.706,15.706,0,0,1-5.534.97c-.734-.2-.617-1.265-.034-1.96S650.036,513.547,650.036,513.547Z" fill="#0a1039"/>
      <path id="Pants" d="M650.52,435.635c.4-1.162,2.785.353,5.414-.857,2.971-1.369,5.507-4.195,6.185-3.907,1.943.824,4.57.941,5.66,2.382.716.577,3.057,4.873,3.107,10.816.011,1.281,1.755,6.834-4.993,8.9-.546,1.715-2.838,9.621-4.731,17.279-2.378,9.622.831,24.951.195,28.714-.612,3.624-11.873,3.28-12.295-.884-.285-2.817-1.645-25.347-3.278-28.854-1.9-4.082-.121-11.313,3.985-27.729A43.446,43.446,0,0,1,650.52,435.635Z" fill="#020687"/>
    </g>
    <g id="Papper_bag" data-name="Papper bag">
      <g id="Papper_bag_base" data-name="Papper bag base" fill="none">
        <path d="M637.193,442.029h0a4.531,4.531,0,0,1,4.614,4.456l.172,9.847a4.531,4.531,0,0,1-4.456,4.614h0a4.531,4.531,0,0,1-4.614-4.456l-.172-9.847A4.532,4.532,0,0,1,637.193,442.029Z" stroke="none"/>
        <path d="M 637.2742919921875 444.0280151367188 C 637.2590942382812 444.0280151367188 637.2437133789062 444.0281372070312 637.228271484375 444.0283813476562 C 636.5494384765625 444.040283203125 635.9169311523438 444.314697265625 635.4472045898438 444.8011779785156 C 634.9774780273438 445.2875366210938 634.7252807617188 445.9292297363281 634.7371826171875 446.6079711914062 L 634.9091796875 456.4554443359375 C 634.9208984375 457.1262817382812 635.1898803710938 457.7534790039062 635.6666259765625 458.2215576171875 C 636.1429443359375 458.6891784667969 636.773681640625 458.9467163085938 637.442626953125 458.9467163085938 C 637.457763671875 458.9467163085938 637.47314453125 458.9465942382812 637.4885864257812 458.9463500976562 C 638.1673583984375 458.9344482421875 638.7998657226562 458.6600341796875 639.2695922851562 458.173583984375 C 639.7393188476562 457.6872253417969 639.9915161132812 457.0455932617188 639.9796142578125 456.3668518066406 L 639.8076171875 446.5193786621094 C 639.7958984375 445.8484802246094 639.5269165039062 445.2212219238281 639.0501708984375 444.7531127929688 C 638.5739135742188 444.2855529785156 637.9432373046875 444.0280151367188 637.2742919921875 444.0280151367188 M 637.2742919921875 442.0279846191406 C 639.74560546875 442.0279846191406 641.76416015625 444.0037536621094 641.8073120117188 446.4845886230469 L 641.9793090820312 456.3319091796875 C 642.023193359375 458.8396911621094 640.0313720703125 460.9021911621094 637.5234985351562 460.9460144042969 C 637.49658203125 460.9465026855469 637.4694213867188 460.9467163085938 637.442626953125 460.9467163085938 C 634.9713134765625 460.9467163085938 632.95263671875 458.9709777832031 632.9094848632812 456.490234375 L 632.7374877929688 446.6429138183594 C 632.693603515625 444.1351318359375 634.6854248046875 442.0726013183594 637.1932983398438 442.0287170410156 C 637.22021484375 442.0282287597656 637.2474365234375 442.0279846191406 637.2742919921875 442.0279846191406 Z" stroke="none" fill="#0a1039"/>
      </g>
      <path id="Papper_bag_base-2" data-name="Papper bag base" d="M626.884,452.117a.518.518,0,0,1,.5-.428l17.961-.314a.519.519,0,0,1,.527.515l.179,24.393a.518.518,0,0,1-.479.521l-20.148,1.542-2.559-1.012a.518.518,0,0,1-.32-.572Z" fill="#e7ae34"/>
      <path id="Papper_bag_base-3" data-name="Papper bag base" d="M627.177,452.161a.518.518,0,0,1,.508-.477l20.05-.35a.518.518,0,0,1,.524.459L651.2,477.4a.518.518,0,0,1-.506.577l-25.031.437a.518.518,0,0,1-.526-.559Z" fill="#ffc23f"/>
    </g>
    <g id="Foot-2" data-name="Foot">
      <path id="Leg-2" data-name="Leg" d="M677.123,467.773c.044.011,3.62-2.427,6.938-1.364,3.06.98,10.212,5,21.57,11.993v5.653a165.713,165.713,0,0,0-17.183-5.52c-10.241-2.261-12.55-2.463-16.215-1.476C669.946,477.674,664.287,458.666,677.123,467.773Z" fill="#ffb0b6"/>
      <g id="Pants-2" data-name="Pants">
        <path id="Pants-3" data-name="Pants" d="M699.328,489.456c-5.53-1.921-22.067-10.106-27.787-12.406-1.395-.284-3.317-2.471-4.092-3.657-1.713-2.624-5.169-8.769-9.117-23.2-7.172-7.838-8.693-9.475-8.535-9.7-.573-3.445,1.842-7.847,2.023-8.861.082-.459,1.1-.271,2.478-.09a13.412,13.412,0,0,0,3.711.09c3.249-.5,6.482-2.517,7.056-2.054,1.649,1.329,4.153,2.166,4.807,3.853,4.936,3.408,6,15.974,9.128,30.046a159.459,159.459,0,0,1,25.516,12.3c1.679,1.027-2.643,13.665-4.977,13.706A.6.6,0,0,1,699.328,489.456Z" fill="#374abe"/>
        <path id="Texture" d="M701.15,479.985s-26.8-8.556-27.757-12.731-3.55-26.28-4.885-27.191-8.219-8.138-8.219-8.138" fill="none" stroke="#fff" stroke-linecap="round" stroke-width="1"/>
        <path id="Texture-2" data-name="Texture" d="M657.2,437.243s5.58,4.066,8.764,2.033" fill="none" stroke="#fff" stroke-linecap="round" stroke-width="1"/>
      </g>
    </g>
    <g id="Papper_bag-2" data-name="Papper bag">
      <g id="Papper_bag_base-4" data-name="Papper bag base" fill="none">
        <path d="M636.237,441.678h0a4.532,4.532,0,0,1,5.61,3.11l2.715,9.467a4.531,4.531,0,0,1-3.11,5.61h0a4.532,4.532,0,0,1-5.61-3.11l-2.715-9.467A4.531,4.531,0,0,1,636.237,441.678Z" stroke="none"/>
        <path d="M 637.4930419921875 443.5001831054688 C 637.2569580078125 443.5001831054688 637.02001953125 443.5338134765625 636.788818359375 443.6001281738281 C 636.1361694335938 443.7872314453125 635.5962524414062 444.2160339355469 635.2683715820312 444.8074035644531 C 634.9406127929688 445.3988037109375 634.8630981445312 446.0838623046875 635.0502319335938 446.7364501953125 L 637.764892578125 456.2037048339844 C 638.0753173828125 457.2861938476562 639.075439453125 458.0421752929688 640.1969604492188 458.0421752929688 C 640.4329833984375 458.0421752929688 640.669921875 458.008544921875 640.901123046875 457.9422912597656 C 641.5538330078125 457.755126953125 642.09375 457.3263244628906 642.421630859375 456.7349548339844 C 642.7493896484375 456.1435852050781 642.8268432617188 455.4585876464844 642.6396484375 454.8059692382812 L 639.9251098632812 445.3387451171875 C 639.6146850585938 444.2562255859375 638.6145629882812 443.5001831054688 637.4930419921875 443.5001831054688 M 637.4930419921875 441.5001831054688 C 639.4652709960938 441.5001831054688 641.2762451171875 442.795166015625 641.8475952148438 444.7873840332031 L 644.5621948242188 454.2546997070312 C 645.2537231445312 456.6655883789062 643.8637084960938 459.1734008789062 641.452392578125 459.8648071289062 C 639.041748046875 460.5562438964844 636.5338745117188 459.1659851074219 635.8424072265625 456.7550354003906 L 633.127685546875 447.2877197265625 C 632.436279296875 444.8765869140625 633.8264770507812 442.3689575195312 636.2374877929688 441.6776123046875 C 636.6563110351562 441.5575256347656 637.0784301757812 441.5001831054688 637.4930419921875 441.5001831054688 Z" stroke="none" fill="#0a1039"/>
      </g>
      <path id="Papper_bag_base-5" data-name="Papper bag base" d="M628.891,454.091a.518.518,0,0,1,.374-.544l17.268-4.952a.518.518,0,0,1,.643.36l6.487,23.515a.519.519,0,0,1-.328.627l-19.062,6.7-2.733-.316a.519.519,0,0,1-.457-.47Z" fill="#e7ae34"/>
      <path id="Papper_bag_base-6" data-name="Papper bag base" d="M629.185,454.056a.518.518,0,0,1,.367-.592l19.276-5.527a.518.518,0,0,1,.625.308l9.467,23.978a.518.518,0,0,1-.339.689l-24.065,6.9a.519.519,0,0,1-.653-.4Z" fill="#ffc23f"/>
    </g>
    <g id="Hand">
      <path id="Hand-2" data-name="Hand" d="M642.1,442.317c-1.209,2.08-1.95,2.966-2.685,3.323s-.62-.283-.558-.5c-.927.316-.94-.214-.94-.6-.8.172-.989-.44-.737-.981-2.045,1.1-.776-.82-.571-.974.309-.232,1.012-.614,1.038-.905s-1.858.484-2.057.1,1.805-.936,2.248-1c.974-.134,3.149.106,4.019-.26,4.045-1.7,8.574-4.934,13.565-10.1a12.092,12.092,0,0,1,4.549-2.722c-.638-9.225-.84-14.451-1.155-16.21-.473-2.638-.116-5.862,3.02-6s4.987,2.516,5.015,5.272c.019,1.837-1.69,9.738-3.208,20.487C663.638,431.25,653.274,439.685,642.1,442.317Z" fill="#ffb0b6"/>
      <path id="Shirt-2" data-name="Shirt" d="M658.812,418.543c-.225-3.652.189-6,0-7.049-.473-2.638-.116-5.862,3.02-6s4.987,2.516,5.015,5.272a54.168,54.168,0,0,1-.888,9.088C665.411,423.044,658.963,420.992,658.812,418.543Z" fill="#fff"/>
      <path id="Shadow-5" data-name="Shadow" d="M661.831,405.491c3.135-.141,4.987,2.516,5.015,5.272a54.168,54.168,0,0,1-.888,9.088c-.341,1.991-2.976,1.943-4.948,1.031-.311-.144,2.894-.2,3.247-1.031.174-.413-2.055-1.128-1.518-1.674.471-.479,2.4-.665,2.723-1.372A9.319,9.319,0,0,0,661.831,405.491Z" fill="#e9edf0"/>
    </g>
    <g id="Head">
      <g id="Face_" data-name="Face ">
        <path id="Face_base" data-name="Face base" d="M645.438,399.008c-.558-.214-.91-1.776-.825-3.581a2,2,0,0,0-.147-.748c-.161-.562-1.391-.709-1.184-1.442.265-.939,2.269-2.573,2.663-3.6,1.772-4.616,4.2-7.978,8.818-6.205s4.173,5.9,2.4,10.512S646.256,399.323,645.438,399.008Z" fill="#ffb0b6"/>
        <g id="Lips">
          <path id="Lips_base" data-name="Lips base" d="M645.342,395.928c.63.173.266.428,1.392.156a1.867,1.867,0,0,1-2.153.364c-.028-.133-.34-.36.028-.676.036-.031-.028.074.153.137A4.877,4.877,0,0,1,645.342,395.928Z" fill="#ff5932"/>
          <path id="Lips_base-2" data-name="Lips base" d="M646.667,396.127c-.719.487-.537,1.129-1.924,1.016a.429.429,0,0,1-.112-.726C644.889,396.157,645.988,396.387,646.667,396.127Z" fill="#ff5932"/>
          <path id="Lips_base-3" data-name="Lips base" d="M646.591,396.18a3.314,3.314,0,0,1-1.167.524c-.16.015-.951-.13-.859-.214.023-.022.028-.042.016-.062.195.049.28-.045.4-.027.083.012.3.144.407.166a2.051,2.051,0,0,0,1.207-.4S646.888,395.956,646.591,396.18Z" fill="#f01b00"/>
        </g>
        <path id="Face_base-2" data-name="Face base" d="M647.873,388.447a4.09,4.09,0,0,1,2.465,1.324,7.627,7.627,0,0,0-3.184-.292C646.344,389.664,647.029,388.492,647.873,388.447Z" fill="#510000"/>
        <path id="Face_base-3" data-name="Face base" d="M647.11,390.862c-.356.07-.674.231-.784.231s.584-.664,1.169-.689a.269.269,0,0,1,.085,0l.02,0,.032,0c.606.091,1.3,1.3,1.172,1.261a5.133,5.133,0,0,0-.891-.719,1.07,1.07,0,0,1-.008.178c-.048.368-.271.638-.5.6s-.373-.36-.325-.728a1.124,1.124,0,0,1,.029-.145Z" fill="#510000"/>
        <path id="Face_base-4" data-name="Face base" d="M653.263,393.406c-.016-.039.342-.148.525-.26.128-.078.179-.287.072-.311-.28-.063-.729-.733-.146-1.07a3.04,3.04,0,0,1,1.032-.415c.444-.05.524.832.453.82s-.142-.642-.418-.61a3.006,3.006,0,0,0-.929.425c-.39.228-.018.616.141.757a.267.267,0,0,1-.01.421C653.879,393.264,653.29,393.472,653.263,393.406Z" fill="#ff6868"/>
      </g>
      <g id="glasses">
        <path id="glasses_base" data-name="glasses base" d="M645.145,393.748a.373.373,0,0,1-.135-.025c-.267-.1-.371-.487-.3-1.111a11.833,11.833,0,0,1,1.656-4.313c.3-.425.592-.65.833-.65a.373.373,0,0,1,.135.025c.267.1.371.487.3,1.112a11.81,11.81,0,0,1-1.655,4.313C645.673,393.523,645.385,393.748,645.145,393.748Zm.008-.517a.116.116,0,0,1,.043.009.1.1,0,0,1,.04.023.354.354,0,0,1-.02-.075l.034-.029a2.464,2.464,0,0,0,.377-.472,11.562,11.562,0,0,0,1.471-3.832,2.5,2.5,0,0,0,.035-.6c0-.016,0-.03-.006-.043a.2.2,0,0,0-.034.027,2.5,2.5,0,0,0-.378.472,11.589,11.589,0,0,0-1.471,3.832,2.508,2.508,0,0,0-.035.6v.006c0,.013,0,.026.005.038a.381.381,0,0,1-.064.042Z" fill="#0a1039"/>
        <path id="glasses_base-2" data-name="glasses base" d="M647.228,389.983l5.961,1.967-.081.247-6.034-1.782Z" fill="#0a1039"/>
      </g>
      <path id="Hair" d="M660.53,382.645c1.326,1.113,1.854,6.311,2.713,10.841.514,2.708,4.446.982,5.178,5.441.907,5.523-7.044,8.507-9.948,5.639-.862-.851-1.782-2.011-1.5-4.88-.715,3.254.054,4.182,2.31,6-2.564-1.022-3.286-2.679-3.159-4.352q.277-3.669-1.192-5.069a2.224,2.224,0,0,1-1.221-1.547,3.086,3.086,0,0,0,1.672-1.6c.373-.972.293-1.856-.2-2.228q-.5-.372-1.86.815c-.245.476-.163,1.267-.42,1.147-.293-.137-.505-2.587-.808-2.7q-2.451-.941-3.624-4.422a20.624,20.624,0,0,0-2.946,4.8,7.527,7.527,0,0,1-1.024-7.023,4.24,4.24,0,0,1,5.1-1.937c3.267,1.254,8.406-.229,10.068.409A2,2,0,0,1,660.53,382.645Z" fill="#510000"/>
    </g>
  </g>
  <g id="Leaves-5" data-name="Leaves" transform="translate(-492.025 -317.244)">
    <path id="Leaves_base-37" data-name="Leaves base" d="M764.16,465.422a.259.259,0,0,0,.4.325q10.394-12.891,19.252-15.554c9.675-2.915,18.565-11.194,18.812-18.392a.259.259,0,1,0-.518-.018c-.238,6.935-8.958,15.056-18.444,17.914Q774.637,452.417,764.16,465.422Z" fill="#ff8d88"/>
    <path id="Leaves_base-38" data-name="Leaves base" d="M797.608,441.017a.259.259,0,1,0,.517.03c.209-3.579-.241-6.109-1.372-7.594a.259.259,0,1,0-.412.314C797.38,435.132,797.81,437.55,797.608,441.017Z" fill="#ff8d88"/>
    <path id="Leaves_base-39" data-name="Leaves base" d="M797.922,438.784h0l-.348-.367c-2.284-2.4-3.617-4.177-4.077-5.433a1.75,1.75,0,0,1,.019-1.6,1.891,1.891,0,0,1,1.574-.675c.08,0,.161-.006.238-.006a2.692,2.692,0,0,1,2.13.863,4.34,4.34,0,0,1,.886,2.542,16.237,16.237,0,0,1-.328,4.175l-.093.5Zm-2.609-7.56c-.063,0-.129,0-.2.005-.611.032-.993.176-1.167.44a1.27,1.27,0,0,0,.033,1.135,17.7,17.7,0,0,0,3.613,4.881,14.469,14.469,0,0,0,.231-3.62,3.678,3.678,0,0,0-.766-2.139A2.233,2.233,0,0,0,795.312,431.224Z" fill="#ff8d88"/>
    <path id="Leaves_base-40" data-name="Leaves base" d="M801.34,436.566v0l-.084-.485c-.543-3.151-.643-5.3-.306-6.566a2.246,2.246,0,0,1,.52-1.013,1.229,1.229,0,0,1,.833-.374l.079,0a2.557,2.557,0,0,1,1.2.364,2.613,2.613,0,0,1,1.508,1.913,4.094,4.094,0,0,1-.7,2.554,16.538,16.538,0,0,1-2.691,3.263l-.351.345Zm1.051-7.928h-.048c-.433.023-.716.343-.893,1.006a16.173,16.173,0,0,0,.234,5.85,14.831,14.831,0,0,0,2.295-2.856,3.449,3.449,0,0,0,.578-2.15,2.136,2.136,0,0,0-1.225-1.547A2.052,2.052,0,0,0,802.391,428.638Z" fill="#ff8d88"/>
    <path id="Leaves_base-41" data-name="Leaves base" d="M797.3,441.312a.259.259,0,0,0,.294.427,29.426,29.426,0,0,1,6.384-3.7.259.259,0,0,0-.147-.5C802.588,437.91,800.419,439.164,797.3,441.312Z" fill="#ff8d88"/>
    <path id="Leaves_base-42" data-name="Leaves base" d="M805.117,439.652a2.944,2.944,0,0,1-.432-.031,25.134,25.134,0,0,0-3.349-.321h-.091l-.467.006.242-.4a18.529,18.529,0,0,1,2.833-3.754,4.168,4.168,0,0,1,2.524-1.347c.039,0,.079,0,.118,0a2.467,2.467,0,0,1,1.613.648,2.664,2.664,0,0,1,1.038,1.823,2.571,2.571,0,0,1-.756,1.884,4.732,4.732,0,0,1-3.093,1.489C805.237,439.651,805.176,439.652,805.117,439.652Zm1.375-5.313-.095,0a3.625,3.625,0,0,0-2.159,1.155,16.859,16.859,0,0,0-2.537,3.292,29.3,29.3,0,0,1,3.059.32,2.467,2.467,0,0,0,.355.025c.05,0,.1,0,.154,0a4.244,4.244,0,0,0,2.736-1.319,2.044,2.044,0,0,0,.623-1.5,2.14,2.14,0,0,0-.856-1.463A1.95,1.95,0,0,0,806.492,434.339Z" fill="#ff8d88"/>
    <path id="Leaves_base-43" data-name="Leaves base" d="M795.542,443.19a.259.259,0,1,0,.127.5c2.325-.587,3.88-.669,4.632-.274a.259.259,0,1,0,.241-.459C799.641,442.485,797.985,442.572,795.542,443.19Z" fill="#ff8d88"/>
    <path id="Leaves_base-44" data-name="Leaves base" d="M802.663,446.058A1.533,1.533,0,0,1,802,445.9c-1.313-.622-3.04-1.408-5.133-2.336l-.479-.212.459-.252a13.143,13.143,0,0,1,2.435-1.046,9.912,9.912,0,0,1,2.37-.431c.151-.008.3-.012.457-.012.26,0,.522.012.78.034a1.886,1.886,0,0,1,1.452.772,2.211,2.211,0,0,1,.2,1.886,2.8,2.8,0,0,1-.706,1.231,1.692,1.692,0,0,1-1.1.518Zm-.981-3.915a10.454,10.454,0,0,0-4.115,1.168c1.889.84,3.456,1.555,4.656,2.124a1,1,0,0,0,.429.1h.052a2.011,2.011,0,0,0,1.211-2.811,1.389,1.389,0,0,0-1.073-.557c-.24-.021-.484-.032-.726-.032-.145,0-.291,0-.435.012Z" fill="#ff8d88"/>
    <path id="Leaves_base-45" data-name="Leaves base" d="M791.276,446.286a.259.259,0,0,0,.079.512c2.7-.418,4.493-.129,5.377.828a.259.259,0,0,0,.381-.352C796.083,446.16,794.133,445.844,791.276,446.286Z" fill="#ff8d88"/>
    <path id="Leaves_base-46" data-name="Leaves base" d="M797.958,450.452a2.418,2.418,0,0,1-.737-.1,1.121,1.121,0,0,1-.607-.423,16.828,16.828,0,0,0-3.654-3.367l-.66-.493.824.027a38.714,38.714,0,0,1,5.169.457,8.755,8.755,0,0,1,3.03.971,1.038,1.038,0,0,1,.509.65.937.937,0,0,1-.194.725,3.64,3.64,0,0,1-1.487,1.04,6.058,6.058,0,0,1-2,.51C798.084,450.451,798.02,450.452,797.958,450.452Zm-4.032-3.809h0a15.072,15.072,0,0,1,3.119,2.993,1.059,1.059,0,0,0,.887.294c.055,0,.113,0,.172,0a5.6,5.6,0,0,0,1.841-.465,3.191,3.191,0,0,0,1.272-.867.423.423,0,0,0,.106-.325c-.021-.106-.108-.2-.275-.308-1.131-.709-3.528-1.152-7.123-1.318Z" fill="#ff8d88"/>
    <path id="Leaves_base-47" data-name="Leaves base" d="M789.095,447.246a.259.259,0,1,0,.425.3c2.059-2.952,2.889-4.906,2.45-5.953a.259.259,0,0,0-.478.2C791.831,442.6,791.045,444.45,789.095,447.246Z" fill="#ff8d88"/>
    <path id="Leaves_base-48" data-name="Leaves base" d="M790.859,444.949h0l-.137-.317a16.452,16.452,0,0,1-1.082-3.214,3.632,3.632,0,0,1,.058-2.074,1.453,1.453,0,0,1,.87-.815,2.7,2.7,0,0,1,.8-.17c.041,0,.084,0,.125,0a2.06,2.06,0,0,1,1.7.86,2.269,2.269,0,0,1,.4,1.094,2.775,2.775,0,0,1-.2,1.315,7.819,7.819,0,0,1-2.271,3.1l-.265.222Zm.624-6.075-.1,0a2.228,2.228,0,0,0-.641.137.968.968,0,0,0-.566.544c-.345.793-.051,2.32.877,4.54a7.254,7.254,0,0,0,1.858-2.668,1.968,1.968,0,0,0-.138-1.909A1.563,1.563,0,0,0,791.483,438.874Z" fill="#ff8d88"/>
    <path id="Leaves_base-49" data-name="Leaves base" d="M774.219,454.836a.259.259,0,1,0,.433.284c5.538-8.452,7.027-20.509,2.588-26.182a.259.259,0,1,0-.408.319C781.108,434.723,779.647,446.549,774.219,454.836Z" fill="#ff8d88"/>
    <path id="Leaves_base-50" data-name="Leaves base" d="M779.32,439.226a.259.259,0,1,0,.416-.309c-2.141-2.876-4.111-4.525-5.932-4.936a.259.259,0,0,0-.114.506C775.363,434.863,777.246,436.439,779.32,439.226Z" fill="#ff8d88"/>
    <path id="Leaves_base-51" data-name="Leaves base" d="M778.125,437.313h0l-.5-.058c-3.292-.37-5.455-.874-6.615-1.542a1.749,1.749,0,0,1-1.012-1.234,1.89,1.89,0,0,1,.772-1.529,2.931,2.931,0,0,1,2-.9,2.427,2.427,0,0,1,.369.029,4.345,4.345,0,0,1,2.312,1.378,16.235,16.235,0,0,1,2.432,3.409l.249.44Zm-5.357-4.721a2.416,2.416,0,0,0-1.648.737c-.447.417-.647.772-.611,1.087.034.3.281.575.755.848a17.686,17.686,0,0,0,5.9,1.417,14.454,14.454,0,0,0-2.148-2.921,3.688,3.688,0,0,0-1.963-1.147A2.021,2.021,0,0,0,772.768,432.592Z" fill="#ff8d88"/>
    <path id="Leaves_base-52" data-name="Leaves base" d="M779.317,433.417h0l-.375-.318c-2.442-2.064-3.9-3.645-4.456-4.832a2.255,2.255,0,0,1-.252-1.111,1.225,1.225,0,0,1,.4-.823,2.464,2.464,0,0,1,1.21-.544,3.946,3.946,0,0,1,.771-.082,2.328,2.328,0,0,1,1.614.579,4.086,4.086,0,0,1,1.1,2.408,16.579,16.579,0,0,1,.036,4.229l-.048.491Zm-2.747-7.187a3.188,3.188,0,0,0-.627.067,1.953,1.953,0,0,0-.952.4c-.317.3-.329.723-.037,1.345a16.175,16.175,0,0,0,3.939,4.331,14.854,14.854,0,0,0-.077-3.663,3.46,3.46,0,0,0-.94-2.019A1.9,1.9,0,0,0,776.57,426.23Z" fill="#ff8d88"/>
    <path id="Leaves_base-53" data-name="Leaves base" d="M779.274,439.648a.259.259,0,1,0,.5.138,29.405,29.405,0,0,1,2.513-6.938.259.259,0,0,0-.432-.286C781.137,433.644,780.282,436,779.274,439.648Z" fill="#ff8d88"/>
    <path id="Leaves_base-54" data-name="Leaves base" d="M780.649,435.878v0l-.072-.46a18.532,18.532,0,0,1-.242-4.7,4.172,4.172,0,0,1,1.067-2.654,2.431,2.431,0,0,1,1.718-.619h.022a2.664,2.664,0,0,1,1.966.73,2.57,2.57,0,0,1,.633,1.93,4.734,4.734,0,0,1-1.413,3.128,3.162,3.162,0,0,1-.485.374A23.858,23.858,0,0,0,781,435.573l-.352.3Zm2.473-7.914a1.92,1.92,0,0,0-1.359.5,3.616,3.616,0,0,0-.912,2.272,16.853,16.853,0,0,0,.172,4.154,29.209,29.209,0,0,1,2.55-1.722,2.569,2.569,0,0,0,.4-.311,4.245,4.245,0,0,0,1.247-2.768,2.041,2.041,0,0,0-.488-1.551,2.141,2.141,0,0,0-1.6-.571Z" fill="#ff8d88"/>
    <path id="Leaves_base-55" data-name="Leaves base" d="M779.134,442.217a.259.259,0,0,0,.42.3c1.4-1.944,2.542-3.007,3.372-3.188a.259.259,0,1,0-.11-.506C781.821,439.043,780.608,440.174,779.134,442.217Z" fill="#ff8d88"/>
    <path id="Leaves_base-56" data-name="Leaves base" d="M779.89,441.8v0l.189-.487a13.129,13.129,0,0,1,1.193-2.367,9.844,9.844,0,0,1,1.539-1.853,8.742,8.742,0,0,1,.961-.777,2.032,2.032,0,0,1,1.166-.4,1.643,1.643,0,0,1,.442.061,2.209,2.209,0,0,1,1.367,1.315,2.8,2.8,0,0,1,.251,1.4,1.7,1.7,0,0,1-.508,1.1,1.542,1.542,0,0,1-.665.359c-1.418.37-3.246.878-5.433,1.509l-.5.145Zm5.049-5.366a1.526,1.526,0,0,0-.871.3,8.3,8.3,0,0,0-.9.731,10.458,10.458,0,0,0-2.4,3.538c2.01-.577,3.67-1.036,4.932-1.365a1,1,0,0,0,.432-.234,2.013,2.013,0,0,0-.879-2.932A1.153,1.153,0,0,0,784.939,436.435Z" fill="#ff8d88"/>
    <path id="Leaves_base-57" data-name="Leaves base" d="M777.856,447.332a.259.259,0,0,0,.39.341c1.8-2.059,3.359-2.987,4.651-2.822a.259.259,0,1,0,.066-.514C781.457,444.145,779.761,445.156,777.856,447.332Z" fill="#ff8d88"/>
    <path id="Leaves_base-58" data-name="Leaves base" d="M784.547,446.724h0a.936.936,0,0,1-.26-.036,11.554,11.554,0,0,0-2.978-.29c-.6,0-1.264.02-1.985.061l-.823.046.648-.509a38.636,38.636,0,0,1,4.254-2.973,8.741,8.741,0,0,1,2.945-1.2,1.539,1.539,0,0,1,.213-.016.851.851,0,0,1,.911.866,3.63,3.63,0,0,1-.47,1.752A6.064,6.064,0,0,1,785.8,446.1a2.642,2.642,0,0,1-.773.522A1.279,1.279,0,0,1,784.547,446.724Zm-3.253-.845a12.1,12.1,0,0,1,3.136.311.441.441,0,0,0,.122.016,1.45,1.45,0,0,0,.876-.476,5.618,5.618,0,0,0,1.112-1.54,3.19,3.19,0,0,0,.417-1.481.422.422,0,0,0-.127-.317.4.4,0,0,0-.255-.071,1.123,1.123,0,0,0-.155.012c-1.322.184-3.442,1.384-6.3,3.569C780.548,445.886,780.945,445.879,781.294,445.879Z" fill="#ff8d88"/>
    <path id="Leaves_base-59" data-name="Leaves base" d="M776.8,449.469a.259.259,0,0,0,.516-.046c-.32-3.585-.94-5.615-1.95-6.136a.259.259,0,1,0-.237.461C775.912,444.151,776.5,446.073,776.8,449.469Z" fill="#ff8d88"/>
    <path id="Leaves_base-60" data-name="Leaves base" d="M776.677,446.576h0l-.309-.155a16.448,16.448,0,0,1-2.894-1.768,3.637,3.637,0,0,1-1.289-1.625,1.455,1.455,0,0,1,.142-1.184,2.707,2.707,0,0,1,.5-.644,2.1,2.1,0,0,1,1.434-.584,2.072,2.072,0,0,1,.517.066,2.255,2.255,0,0,1,1.012.578,2.759,2.759,0,0,1,.69,1.138,7.826,7.826,0,0,1,.256,3.838l-.06.34Zm-2.4-5.441a1.611,1.611,0,0,0-1.1.45,2.163,2.163,0,0,0-.4.517.964.964,0,0,0-.084.78c.245.83,1.452,1.81,3.589,2.913a7.264,7.264,0,0,0-.292-3.237,1.968,1.968,0,0,0-1.333-1.373A1.531,1.531,0,0,0,774.274,441.135Z" fill="#ff8d88"/>
    <path id="Leaves_base-61" data-name="Leaves base" d="M772.574,457.083a.259.259,0,0,0-.314.413c8.046,6.114,19.969,8.44,25.938,4.409a.259.259,0,0,0-.29-.43C792.157,465.359,780.462,463.077,772.574,457.083Z" fill="#ff8d88"/>
    <path id="Leaves_base-62" data-name="Leaves base" d="M787.791,463.261a.259.259,0,0,0,.28.437c3.019-1.935,4.8-3.786,5.337-5.573a.259.259,0,1,0-.5-.149C792.419,459.618,790.715,461.387,787.791,463.261Z" fill="#ff8d88"/>
    <path id="Leaves_base-63" data-name="Leaves base" d="M789.783,462.2h0l.092-.5c.6-3.258,1.254-5.381,2-6.492a1.75,1.75,0,0,1,1.3-.923h.05a1.939,1.939,0,0,1,1.422.879,2.779,2.779,0,0,1,.7,2.419,4.338,4.338,0,0,1-1.535,2.21,16.237,16.237,0,0,1-3.57,2.188l-.457.218Zm3.447-7.4H793.2c-.3.014-.594.241-.9.695a17.7,17.7,0,0,0-1.825,5.791,14.469,14.469,0,0,0,3.065-1.939,3.7,3.7,0,0,0,1.281-1.877,2.307,2.307,0,0,0-.58-1.983C793.871,455.031,793.539,454.806,793.23,454.806Z" fill="#ff8d88"/>
    <path id="Leaves_base-64" data-name="Leaves base" d="M797.289,464.051a19.86,19.86,0,0,1-3.215-.306l-.487-.081.345-.355c2.228-2.291,3.907-3.635,5.131-4.108a2.523,2.523,0,0,1,.9-.19,1.545,1.545,0,0,1,.229.017,1.225,1.225,0,0,1,.793.454,2.469,2.469,0,0,1,.457,1.246,2.618,2.618,0,0,1-.661,2.345,4.091,4.091,0,0,1-2.48.932C797.985,464.036,797.647,464.051,797.289,464.051Zm2.667-4.524a2,2,0,0,0-.706.158,16.146,16.146,0,0,0-4.6,3.628,18.391,18.391,0,0,0,2.673.227,9.2,9.2,0,0,0,.987-.049,3.449,3.449,0,0,0,2.079-.8,2.136,2.136,0,0,0,.531-1.9,1.954,1.954,0,0,0-.335-.977A.767.767,0,0,0,799.956,459.527Z" fill="#ff8d88"/>
    <path id="Leaves_base-65" data-name="Leaves base" d="M787.372,463.186a.259.259,0,1,0-.172.489,29.43,29.43,0,0,1,6.746,2.99.259.259,0,1,0,.315-.411C793.232,465.463,790.943,464.446,787.372,463.186Z" fill="#ff8d88"/>
    <path id="Leaves_base-66" data-name="Leaves base" d="M796.832,470.326h0a3.641,3.641,0,0,1-.391-.022,4.726,4.726,0,0,1-3.022-1.627,3.131,3.131,0,0,1-.338-.51,24.007,24.007,0,0,0-1.763-2.972l-.279-.374.464-.04c.81-.068,1.569-.1,2.258-.1a13.923,13.923,0,0,1,2.445.189,4.177,4.177,0,0,1,2.574,1.25,2.439,2.439,0,0,1,.5,1.779,2.667,2.667,0,0,1-.865,1.912A2.429,2.429,0,0,1,796.832,470.326Zm-3.037-5.132c-.553,0-1.157.023-1.8.069a28.913,28.913,0,0,1,1.54,2.663,2.623,2.623,0,0,0,.283.425,4.245,4.245,0,0,0,2.675,1.438,3.22,3.22,0,0,0,.342.019,1.881,1.881,0,0,0,1.238-.4,2.137,2.137,0,0,0,.681-1.553,1.93,1.93,0,0,0-.4-1.408,3.622,3.622,0,0,0-2.2-1.068A13.019,13.019,0,0,0,793.8,465.194Z" fill="#ff8d88"/>
    <path id="Leaves_base-67" data-name="Leaves base" d="M784.82,462.867a.259.259,0,0,0-.332.4c1.842,1.536,2.822,2.746,2.945,3.586a.259.259,0,1,0,.513-.075C787.8,465.769,786.755,464.48,784.82,462.867Z" fill="#ff8d88"/>
    <path id="Leaves_base-68" data-name="Leaves base" d="M788.2,470.992a2.417,2.417,0,0,1-.4-.033,1.7,1.7,0,0,1-1.063-.583,1.528,1.528,0,0,1-.311-.689c-.267-1.423-.647-3.282-1.128-5.525l-.11-.513.474.224a13.143,13.143,0,0,1,2.278,1.355,9.868,9.868,0,0,1,1.742,1.664,8.815,8.815,0,0,1,.708,1.013,1.891,1.891,0,0,1,.229,1.629,2.213,2.213,0,0,1-1.409,1.272A2.957,2.957,0,0,1,788.2,470.992Zm-2.284-6.415h0c.425,1.991.767,3.678,1.018,5.015a1,1,0,0,0,.2.447,1.337,1.337,0,0,0,1.071.432,2.449,2.449,0,0,0,.825-.152,1.7,1.7,0,0,0,1.091-.952,1.392,1.392,0,0,0-.179-1.2,8.262,8.262,0,0,0-.666-.952,10.425,10.425,0,0,0-3.362-2.642Z" fill="#ff8d88"/>
    <path id="Leaves_base-69" data-name="Leaves base" d="M779.806,461.236a.259.259,0,1,0-.368.365c1.928,1.942,2.745,3.559,2.491,4.836a.259.259,0,1,0,.508.1C782.734,465.05,781.844,463.288,779.806,461.236Z" fill="#ff8d88"/>
    <path id="Leaves_base-70" data-name="Leaves base" d="M783.786,471.154h-.009a3.643,3.643,0,0,1-1.707-.591,6.018,6.018,0,0,1-1.59-1.32,2.607,2.607,0,0,1-.466-.807,1.119,1.119,0,0,1-.014-.74,16.821,16.821,0,0,0,.576-4.935l.012-.824.463.682a38.711,38.711,0,0,1,2.668,4.451,8.746,8.746,0,0,1,1,3.022,1.031,1.031,0,0,1-.227.794A.932.932,0,0,1,783.786,471.154Zm-2.711-7.564a15.119,15.119,0,0,1-.588,4.283c-.089.243.048.608.388,1.027a5.618,5.618,0,0,0,1.46,1.216,3.2,3.2,0,0,0,1.443.519h.005a.422.422,0,0,0,.325-.1.524.524,0,0,0,.088-.4c-.092-1.332-1.142-3.531-3.121-6.537Z" fill="#ff8d88"/>
    <path id="Leaves_base-71" data-name="Leaves base" d="M777.748,460.035a.259.259,0,0,0,.01.518c3.6-.07,5.667-.546,6.257-1.517a.259.259,0,0,0-.443-.269C783.115,459.518,781.157,459.97,777.748,460.035Z" fill="#ff8d88"/>
    <path id="Leaves_base-72" data-name="Leaves base" d="M782.943,460.443a8.112,8.112,0,0,1-1.964-.246l-.337-.085.176-.3a16.465,16.465,0,0,1,1.965-2.764,3.638,3.638,0,0,1,1.711-1.173,1.541,1.541,0,0,1,.341-.039,1.475,1.475,0,0,1,.831.264,2.726,2.726,0,0,1,.608.547,2.066,2.066,0,0,1,.381,1.982,2.262,2.262,0,0,1-.648.969,2.77,2.77,0,0,1-1.183.609A7.721,7.721,0,0,1,782.943,460.443Zm1.9-4.076a1.117,1.117,0,0,0-.239.027c-.845.186-1.907,1.323-3.157,3.378a7.454,7.454,0,0,0,1.491.153,7.214,7.214,0,0,0,1.76-.219,1.968,1.968,0,0,0,1.463-1.233,1.567,1.567,0,0,0-.3-1.5,2.208,2.208,0,0,0-.487-.438A.945.945,0,0,0,784.844,456.368Z" fill="#ff8d88"/>
  </g>
  <g id="Leaves-6" data-name="Leaves" transform="translate(-492.025 -317.244)">
    <path id="Leaves-7" data-name="Leaves" d="M700.146,492.8s63.8,1.107,74,0,2.552-4.934,2.552-8.31-9.242-1.874-12.255-2.354-.583-5.56-6.28-6.1-6.043,2.431-9.283,1.965,4.966-9.013-6.389-9.013-8.28,5.63-13.352,5.715-.615-2.842-8.826-1.722-2.112,5.576-4.35,6.573-6.65-2.533-9.376,0,2.726,6.191,1.8,8.917S700.146,492.8,700.146,492.8Z" fill="#fff"/>
  </g>
</svg>
